<mxfile host="app.diagrams.net" modified="2023-07-09T19:20:19.136Z" agent="Mozilla/5.0 (Windows NT 10.0; Win64; x64; rv:109.0) Gecko/20100101 Firefox/115.0" version="21.6.1" etag="lq2WwVv__EtCcS5q33-Z" type="github">
  <diagram name="Page-1" id="l1xzJot6eG4yC62DwqUp">
    <mxGraphModel>
      <root>
        <mxCell id="0" />
        <mxCell id="1" parent="0" />
        <mxCell id="2" value="Title" style="shape=umlLifeline;perimeter=lifelinePerimeter;whiteSpace=wrap;container=1;dropTarget=0;collapsible=0;recursiveResize=0;outlineConnect=0;portConstraint=eastwest;newEdgeStyle={&quot;edgeStyle&quot;:&quot;elbowEdgeStyle&quot;,&quot;elbow&quot;:&quot;vertical&quot;,&quot;curved&quot;:0,&quot;rounded&quot;:0};size=30;" vertex="1" parent="1">
          <mxGeometry x="150" y="110" width="150" height="300" as="geometry" />
        </mxCell>
        <mxCell id="3" value="" style="shape=image;imageAspect=0;aspect=fixed;image=https://cdn1.iconfinder.com/data/icons/hawcons/32/699721-icon-5-neutral-face-128.png;imageBackground=default;" vertex="1" parent="2">
          <mxGeometry x="60" y="NaN" width="30" height="30" as="geometry" />
        </mxCell>
        <mxCell id="4" value="" style="whiteSpace=wrap;strokeWidth=2;" vertex="1" parent="1">
          <mxGeometry x="150" y="70" width="150" height="30" as="geometry" />
        </mxCell>
        <mxCell id="5" value="Extract data" style="shape=umlLifeline;perimeter=lifelinePerimeter;whiteSpace=wrap;container=1;dropTarget=0;collapsible=0;recursiveResize=0;outlineConnect=0;portConstraint=eastwest;newEdgeStyle={&quot;edgeStyle&quot;:&quot;elbowEdgeStyle&quot;,&quot;elbow&quot;:&quot;vertical&quot;,&quot;curved&quot;:0,&quot;rounded&quot;:0};size=30;" vertex="1" parent="1">
          <mxGeometry x="350" y="110" width="150" height="300" as="geometry" />
        </mxCell>
        <mxCell id="6" value="" style="shape=image;imageAspect=0;aspect=fixed;image=https://cdn1.iconfinder.com/data/icons/hawcons/32/699721-icon-5-neutral-face-128.png;imageBackground=default;" vertex="1" parent="5">
          <mxGeometry x="60" y="NaN" width="30" height="30" as="geometry" />
        </mxCell>
        <mxCell id="7" value="Extract" style="whiteSpace=wrap;strokeWidth=2;" vertex="1" parent="1">
          <mxGeometry x="350" y="70" width="150" height="30" as="geometry" />
        </mxCell>
        <mxCell id="8" value="Extract data" style="shape=umlLifeline;perimeter=lifelinePerimeter;whiteSpace=wrap;container=1;dropTarget=0;collapsible=0;recursiveResize=0;outlineConnect=0;portConstraint=eastwest;newEdgeStyle={&quot;edgeStyle&quot;:&quot;elbowEdgeStyle&quot;,&quot;elbow&quot;:&quot;vertical&quot;,&quot;curved&quot;:0,&quot;rounded&quot;:0};size=30;" vertex="1" parent="1">
          <mxGeometry x="550" y="110" width="150" height="300" as="geometry" />
        </mxCell>
        <mxCell id="9" value="" style="shape=image;imageAspect=0;aspect=fixed;image=https://cdn1.iconfinder.com/data/icons/hawcons/32/699721-icon-5-neutral-face-128.png;imageBackground=default;" vertex="1" parent="8">
          <mxGeometry x="60" y="NaN" width="30" height="30" as="geometry" />
        </mxCell>
        <mxCell id="10" value="Transform data" style="shape=umlLifeline;perimeter=lifelinePerimeter;whiteSpace=wrap;container=1;dropTarget=0;collapsible=0;recursiveResize=0;outlineConnect=0;portConstraint=eastwest;newEdgeStyle={&quot;edgeStyle&quot;:&quot;elbowEdgeStyle&quot;,&quot;elbow&quot;:&quot;vertical&quot;,&quot;curved&quot;:0,&quot;rounded&quot;:0};size=30;" vertex="1" parent="1">
          <mxGeometry x="750" y="110" width="150" height="300" as="geometry" />
        </mxCell>
        <mxCell id="11" value="" style="shape=image;imageAspect=0;aspect=fixed;image=https://cdn1.iconfinder.com/data/icons/hawcons/32/699721-icon-5-neutral-face-128.png;imageBackground=default;" vertex="1" parent="10">
          <mxGeometry x="60" y="NaN" width="30" height="30" as="geometry" />
        </mxCell>
        <mxCell id="12" value="Transform" style="whiteSpace=wrap;strokeWidth=2;" vertex="1" parent="1">
          <mxGeometry x="750" y="70" width="150" height="30" as="geometry" />
        </mxCell>
        <mxCell id="13" value="Transform data" style="shape=umlLifeline;perimeter=lifelinePerimeter;whiteSpace=wrap;container=1;dropTarget=0;collapsible=0;recursiveResize=0;outlineConnect=0;portConstraint=eastwest;newEdgeStyle={&quot;edgeStyle&quot;:&quot;elbowEdgeStyle&quot;,&quot;elbow&quot;:&quot;vertical&quot;,&quot;curved&quot;:0,&quot;rounded&quot;:0};size=30;" vertex="1" parent="1">
          <mxGeometry x="950" y="110" width="150" height="300" as="geometry" />
        </mxCell>
        <mxCell id="14" value="" style="shape=image;imageAspect=0;aspect=fixed;image=https://cdn1.iconfinder.com/data/icons/hawcons/32/699721-icon-5-neutral-face-128.png;imageBackground=default;" vertex="1" parent="13">
          <mxGeometry x="60" y="NaN" width="30" height="30" as="geometry" />
        </mxCell>
        <mxCell id="15" value="Load data" style="shape=umlLifeline;perimeter=lifelinePerimeter;whiteSpace=wrap;container=1;dropTarget=0;collapsible=0;recursiveResize=0;outlineConnect=0;portConstraint=eastwest;newEdgeStyle={&quot;edgeStyle&quot;:&quot;elbowEdgeStyle&quot;,&quot;elbow&quot;:&quot;vertical&quot;,&quot;curved&quot;:0,&quot;rounded&quot;:0};size=30;" vertex="1" parent="1">
          <mxGeometry x="1150" y="110" width="150" height="300" as="geometry" />
        </mxCell>
        <mxCell id="16" value="" style="shape=image;imageAspect=0;aspect=fixed;image=https://cdn1.iconfinder.com/data/icons/hawcons/32/699721-icon-5-neutral-face-128.png;imageBackground=default;" vertex="1" parent="15">
          <mxGeometry x="60" y="NaN" width="30" height="30" as="geometry" />
        </mxCell>
        <mxCell id="17" value="Load" style="whiteSpace=wrap;strokeWidth=2;" vertex="1" parent="1">
          <mxGeometry x="1150" y="70" width="150" height="30" as="geometry" />
        </mxCell>
        <mxCell id="18" value="Load data" style="shape=umlLifeline;perimeter=lifelinePerimeter;whiteSpace=wrap;container=1;dropTarget=0;collapsible=0;recursiveResize=0;outlineConnect=0;portConstraint=eastwest;newEdgeStyle={&quot;edgeStyle&quot;:&quot;elbowEdgeStyle&quot;,&quot;elbow&quot;:&quot;vertical&quot;,&quot;curved&quot;:0,&quot;rounded&quot;:0};size=30;" vertex="1" parent="1">
          <mxGeometry x="1350" y="110" width="150" height="300" as="geometry" />
        </mxCell>
        <mxCell id="19" value="" style="shape=image;imageAspect=0;aspect=fixed;image=https://cdn1.iconfinder.com/data/icons/hawcons/32/699721-icon-5-neutral-face-128.png;imageBackground=default;" vertex="1" parent="18">
          <mxGeometry x="60" y="NaN" width="30" height="30" as="geometry" />
        </mxCell>
        <mxCell id="20" style="endArrow=block;strokeWidth=3;endFill=1;" edge="1" parent="1">
          <mxGeometry relative="1" as="geometry">
            <mxPoint x="150" y="190" as="sourcePoint" />
            <mxPoint x="1550" y="190" as="targetPoint" />
          </mxGeometry>
        </mxCell>
      </root>
    </mxGraphModel>
  </diagram>
</mxfile>
